 http://desibbrg.org/images/66952052392581364616.gif
 
http://desibbrg.org/images/67851811051799764353.jpg
 
http://desibbrg.org/images/04895811057066345362.png
 
http://desibbrg.org/images/62389969007622289126.png
 
http://desibbrg.org/images/15442924756393170208.png
 
http://desibbrg.org/images/53589706970621220894.png

Media Info - 
General
Format                           : AVI
Format/Info                      : Audio Video Interleave
File size                        : 816 MiB
Duration                         : 2h 5mn
Overall bit rate                 : 909 Kbps

Video
ID                               : 0
Format                           : mp43
Codec ID                         : mp43
Duration                         : 2h 5mn
Bit rate                         : 34.9 Kbps
Width                            : 608 pixels
Height                           : 260 pixels
Display aspect ratio             : 2.35:1
Frame rate                       : 23.976 fps
Bits/(Pixel*Frame)               : 0.009
Stream size                      : 31.4 MiB (4%)

Audio
ID                               : 1
Format                           : MPEG Audio
Codec ID                         : 55
Codec ID/Hint                    : MP3
Duration                         : 2h 5mn
Bit rate                         : 128 Kbps
Channel(s)                       : 2 channels
Sampling rate                    : 32.0 KHz
Compression mode                 : Lossy
Stream size                      : 115 MiB (14%)
Alignment                        : Aligned on interleaves

Ripper : LOTTERY

Seeding 24x7... Extreme Seeding...


Enjoy!
